<?xml version="1.0" standalone="no"?>
<!DOCTYPE svg PUBLIC "-//W3C//DTD SVG 20010904//EN"
 "http://www.w3.org/TR/2001/REC-SVG-20010904/DTD/svg10.dtd">
<svg version="1.0" xmlns="http://www.w3.org/2000/svg"
 width="700.000000pt" height="700.000000pt" viewBox="0 0 700.000000 700.000000"
 preserveAspectRatio="xMidYMid meet">
<metadata>
Created by potrace 1.14, written by Peter Selinger 2001-2017
</metadata>
<g transform="translate(0.000000,700.000000) scale(0.100000,-0.100000)"
fill="#000000" stroke="none">
<path d="M1400 3500 l0 -890 150 0 150 0 0 375 0 375 300 0 300 0 0 140 0 140
-300 0 -300 0 0 230 0 230 680 0 680 0 0 145 0 145 -830 0 -830 0 0 -890z"/>
<path d="M3270 4015 l0 -375 -380 0 -380 0 0 -140 0 -140 380 0 380 0 0 -375
0 -375 145 0 145 0 2 373 3 372 383 3 382 2 0 140 0 140 -382 2 -383 3 -3 373
-2 372 -145 0 -145 0 0 -375z"/>
<path d="M3770 4246 l0 -146 608 0 c510 0 616 -2 659 -15 111 -33 164 -100
165 -207 0 -73 -13 -112 -50 -151 -66 -70 -147 -87 -419 -87 l-193 0 0 -140 0
-139 101 -3 100 -3 247 -372 247 -373 178 0 c97 0 177 2 177 5 0 3 -112 174
-250 380 -137 206 -250 377 -250 379 0 2 21 9 46 15 175 44 311 188 350 369
49 234 -53 456 -256 555 -149 73 -124 71 -827 75 l-633 3 0 -145z"/>
</g>
</svg>
